/* XPM */
static char *iconpixmap[]={
"32 32 10 1",
". c None",
"e c #000080",
"g c #00c000",
"b c #800080",
"# c #808080",
"d c #a0a0a0",
"h c #c000c0",
"c c #c3c3c3",
"f c #ff0000",
"a c #ffffff",
".##############################.",
"#aaaaaaaaaaaaaaaaaaaaaaaaaaaaaa#",
"#abbaaabaaabaaaaaaaaaaaababaaaa#",
"#abababababababbabbabaabaaaabba#",
"#abababbbabbbabaabbabbabbababba#",
"#abbaababaabbabbabbabbabaabaaba#",
"#aaaaaaaaaaaaaaaaaaaaaaaaaaabaa#",
"#########aaaaaaaaaaaaaacccccccc#",
"#ddddddd#aaaaaaaaaaaaaacddddddd#",
"#ddddddd#aaaaaaaaaeaaaacddddddd#",
"#ddddddd#aaaaffffeaeaaacddddddd#",
"#ddddddd#ffffaaafaaaeaacddddddd#",
"#ddddddd#aaaaaaeafaaeeecddddddd#",
"#ddddddd#eeeeeeaaafaaaacddddddd#",
"#ddddddd#aaaaaaaaaafaaacddddddd#",
"#ddddddd#ggggaaaaahhfhhcddddddd#",
"#ddddddd#aaaagaaahaafaacddddddd#",
"#ddddddd#hhhaagaahaafaacddddddd#",
"#ddddddd#aaahagaahaafffcddddddd#",
"#ddddddd#aaahagaahaaaaacddddddd#",
"#ddddddd#aaahaaghaaaaaacddddddd#",
"#ddddddd#aaaahahgaaaaggcddddddd#",
"#ddddddd#aaaaahaagaagaacddddddd#",
"#ddddddd#aaaaaaaaaggaaacddddddd#",
"#ddddddd#aaaaaaaaaaaaaacddddddd#",
"#ddddddd#aaaaaaaaaaaaaacddddddd#",
"#########aaaaaaaaaaaaaacccccccc#",
"#aaaaaaaaaaaaaaaaaaaaaaaaaaaaaa#",
"#aaaaaaaaaaaaaaaaaaaaaaaaaaaaaa#",
"#aaaaaaaaaaaaaaaaaaaaaaaaaaaaaa#",
"#aaaaaaaaaaaaaaaaaaaaaaaaaaaaaa#",
".##############################."};
